<?xml version="1.0" encoding="UTF-8"?>
<svg version="1.1" xmlns="http://www.w3.org/2000/svg" width="500" height="500">
<path d="M0 0 C11.4986379 8.42054099 15.03926053 22.30105078 18.875 35.359375 C19.3846228 37.07241821 19.3846228 37.07241821 19.90454102 38.82006836 C20.57897472 41.10032698 21.23899656 43.38491182 21.88256836 45.67407227 C24.21446498 53.59514625 27.14270414 61.60205523 34.1875 66.5 C41.50906661 70.40483553 44.85959254 69.32397284 55 70 C55 45.58 55 21.16 55 -4 C85.59579006 -4.16065467 85.59579006 -4.16065467 100.80080986 -4.20101547 C108.99637088 -4.22310831 117.19176756 -4.25107513 125.38720703 -4.30175781 C131.87996088 -4.34189118 138.37259022 -4.36749506 144.86546469 -4.37635398 C148.29674307 -4.38152445 151.72766556 -4.39349202 155.15882874 -4.42292023 C177.08336074 -4.59005633 197.68316986 -4.20963336 214.5 11.9375 C225.05490251 23.2780425 230.65564849 38.02723823 230.18359375 53.6328125 C228.84489846 70.89343693 222.49823734 83.94072146 209.34375 95.203125 C200.47826087 102 200.47826087 102 195 102 C207.15622426 125.79192345 207.15622426 125.79192345 219.79492188 149.32958984 C223.33939803 155.77218197 226.82024553 162.24556108 230.25 168.75 C230.72872559 169.65073242 231.20745117 170.55146484 231.70068359 171.47949219 C232.13461426 172.30610352 232.56854492 173.13271484 233.015625 173.984375 C233.40008789 174.71366211 233.78455078 175.44294922 234.18066406 176.19433594 C235 178 235 178 235 180 C212.89 180 190.78 180 168 180 C165.36 174.72 162.72 169.44 160 164 C158.93136719 161.87433594 157.86273438 159.74867188 156.76171875 157.55859375 C151.32551827 146.74342509 145.93731738 135.90706003 140.6875 125 C140.2133667 124.02087646 139.7392334 123.04175293 139.25073242 122.03295898 C138.82123291 121.13520752 138.3917334 120.23745605 137.94921875 119.3125 C137.57112061 118.52488281 137.19302246 117.73726563 136.8034668 116.92578125 C136 115 136 115 136 113 C128.08 113.495 128.08 113.495 120 114 C120.00580078 115.26473145 120.01160156 116.52946289 120.01757812 117.83251953 C120.06252646 132.39975675 119.84526684 146.95553458 119.54776001 161.51937103 C119.44097019 166.78648054 119.33705966 172.05364817 119.23242188 177.32080078 C119.18811894 179.547455 119.14380807 181.77410907 119.0994873 184.00076294 C119.08033012 184.96341127 119.06117294 185.92605961 119.04143524 186.9178791 C119.0209248 187.94852895 119.0209248 187.94852895 119 189 C105.60333621 189.06984936 92.20671653 189.12298747 78.80990696 189.15543652 C72.5876422 189.17101904 66.36550305 189.19212033 60.14331055 189.22631836 C54.12620262 189.25917811 48.10921466 189.27690859 42.09202385 189.28463173 C39.80899101 189.29012784 37.52596391 189.30085872 35.24298286 189.31719017 C10.02356938 189.49024309 -14.80249511 187.27656463 -34.25 169.4375 C-45.16775889 157.99902129 -49.57029822 142.89101466 -49.41552734 127.35717773 C-48.91470331 113.63060496 -43.24336241 102.34108062 -33.68359375 92.65234375 C-25.73775685 85.85845684 -15.9352227 81.10099375 -6 78 C-6.86625 77.484375 -7.7325 76.96875 -8.625 76.4375 C-21.02156539 68.00783554 -23.76767426 52.9820713 -27.50170898 39.36547852 C-27.78216064 38.35928467 -28.0626123 37.35309082 -28.3515625 36.31640625 C-28.59729004 35.41349854 -28.84301758 34.51059082 -29.09619141 33.58032227 C-30.33316355 30.04883696 -31.54757816 26.72621092 -35 25 C-41.22062469 24.48161461 -43.92790374 25.08065289 -49 29 C-50.32172742 29.6893902 -51.65313898 30.36110439 -53 31 C-54.56736632 27.76178729 -56.09922029 24.50798843 -57.625 21.25 C-58.07101563 20.32960937 -58.51703125 19.40921875 -58.9765625 18.4609375 C-59.3890625 17.57148438 -59.8015625 16.68203125 -60.2265625 15.765625 C-60.61408691 14.94868164 -61.00161133 14.13173828 -61.40087891 13.29003906 C-62 11 -62 11 -61.19458008 8.79760742 C-55.34353738 -0.00705789 -44.63388892 -3.56220318 -34.8125 -5.8125 C-22.36481543 -8.19379618 -10.68211607 -7.29608682 0 0 Z M120 38 C118.51320275 40.97359449 118.88887395 43.66299179 118.90234375 46.9765625 C118.9037587 47.66181 118.90517365 48.3470575 118.90663147 49.05307007 C118.91223325 51.24375761 118.92478594 53.4343433 118.9375 55.625 C118.94251478 57.10937352 118.94707772 58.59374865 118.95117188 60.078125 C118.96220323 63.71878315 118.97946901 67.35938164 119 71 C124.28355502 71.09930776 129.56655984 71.17167464 134.85083008 71.21972656 C136.64617382 71.23977001 138.44145287 71.26701251 140.23657227 71.30175781 C142.8258465 71.35059849 145.4142534 71.3730412 148.00390625 71.390625 C148.79898087 71.41127014 149.59405548 71.43191528 150.41322327 71.45318604 C156.09016838 71.45544203 159.32272151 70.24867535 164 67 C168.0234382 62.44716204 169.26065458 57.97420289 169 52 C167.42802215 46.76007385 165.19524581 43.49603817 161 40 C156.63461692 37.70756419 152.45344758 37.7394068 147.63671875 37.8046875 C146.84473587 37.8075174 146.05275299 37.81034729 145.23677063 37.81326294 C142.72019001 37.82441137 140.20397211 37.84950578 137.6875 37.875 C135.97591662 37.88503671 134.26432763 37.89416136 132.55273438 37.90234375 C128.36835094 37.92433319 124.18423686 37.95882592 120 38 Z M3.46484375 111.48046875 C-2.05630727 117.74206567 -2.45656611 123.47137027 -2.3046875 131.5546875 C-1.71376448 138.23666316 0.82643872 142.13063839 5.5625 146.75 C16.20663843 155.41567404 29.46710363 155.17233497 42.5 155.125 C43.59570312 155.12886719 44.69140625 155.13273437 45.8203125 155.13671875 C46.85929687 155.13542969 47.89828125 155.13414062 48.96875 155.1328125 C49.91169922 155.13168457 50.85464844 155.13055664 51.82617188 155.12939453 C53.97864426 155.24263644 53.97864426 155.24263644 55 154 C55.09340434 152.37325222 55.11745171 150.74245949 55.11352539 149.11303711 C55.11344986 148.07203354 55.11337433 147.03102997 55.11329651 145.95848083 C55.10813522 144.8262056 55.10297394 143.69393036 55.09765625 142.52734375 C55.0962413 141.37456436 55.09482635 140.22178497 55.09336853 139.03407288 C55.08775005 135.33518936 55.07519442 131.63636536 55.0625 127.9375 C55.05748738 125.43684983 55.05292406 122.93619871 55.04882812 120.43554688 C55.03777462 114.29034412 55.02101852 108.14517631 55 102 C50.62584724 101.92506064 46.25204845 101.87103119 41.87744141 101.83520508 C40.39365111 101.82024816 38.90990401 101.79987505 37.42626953 101.77368164 C24.8965546 101.55823476 12.97840795 102.30581014 3.46484375 111.48046875 Z " fill="#17A24A" transform="translate(160,172)"/>
<path d="M0 0 C30.71628106 -0.12049101 30.71628106 -0.12049101 45.95157146 -0.1507616 C54.17227603 -0.16734853 62.3928887 -0.18836551 70.61352539 -0.22631836 C77.12492769 -0.25636554 83.63626046 -0.27560908 90.14773017 -0.28226548 C93.59058074 -0.28615202 97.03323251 -0.29518579 100.47601891 -0.31719017 C104.33398363 -0.33912243 108.19154303 -0.34196027 112.04956055 -0.34057617 C113.73271614 -0.35675491 113.73271614 -0.35675491 115.44987488 -0.3732605 C123.3047342 -0.34297611 130.42352064 0.95627884 138 3 C137.01 3.99 136.02 4.98 135 6 C134.01 5.01 134.01 5.01 133 4 C124.68237307 2.0162934 116.20446569 1.69855474 107.69213867 1.68115234 C106.539319 1.67110672 105.38649933 1.6610611 104.19874573 1.65071106 C100.4384912 1.62014714 96.67830696 1.60291909 92.91796875 1.5859375 C90.29095364 1.56720426 87.6639444 1.54762928 85.03694153 1.5272522 C78.86086343 1.48075022 72.68476817 1.44386933 66.50860626 1.41057932 C58.77585835 1.36837359 51.04321052 1.31308583 43.31054688 1.2578125 C29.54042001 1.15944012 15.77026766 1.08061472 2 1 C2 25.09 2 49.18 2 74 C-4 77 -4 77 -6.10546875 76.67578125 C-7.04326172 76.34126953 -7.04326172 76.34126953 -8 76 C-9.43856072 76.02924985 -10.87673916 76.09314272 -12.3125 76.1875 C-17.27286716 76.27783781 -19.94577681 74.76032217 -24 72 C-24 71.34 -24 70.68 -24 70 C-25.32 69.67 -26.64 69.34 -28 69 C-27.67 68.01 -27.34 67.02 -27 66 C-26.38511719 66.42152344 -25.77023438 66.84304687 -25.13671875 67.27734375 C-23.92435547 68.09912109 -23.92435547 68.09912109 -22.6875 68.9375 C-21.48673828 69.75541016 -21.48673828 69.75541016 -20.26171875 70.58984375 C-13.68333658 74.69139118 -8.90089027 73.40660732 0 74 C0 49.58 0 25.16 0 0 Z " fill="#259A52" transform="translate(215,168)"/>
<path d="M0 0 C4.95 0 9.9 0 15 0 C15 0.33 15 0.66 15 1 C19.83387123 2.2396807 24.5895307 2.16633253 29.54443359 2.18945312 C30.49952316 2.19774643 31.45461273 2.20603973 32.43864441 2.21458435 C34.50877624 2.23195424 36.57892739 2.24712935 38.64908981 2.26036072 C41.92794583 2.2814397 45.20670545 2.3084595 48.48550415 2.33703613 C55.44863212 2.39666111 62.41180538 2.44883792 69.375 2.5 C77.43822252 2.55930985 85.50139751 2.6216846 93.56453323 2.69187927 C96.79002596 2.71837289 100.0155237 2.73923725 103.24105835 2.7598877 C105.22630034 2.77649898 107.21154016 2.79337154 109.19677734 2.81054688 C110.0894783 2.81473129 110.98217926 2.81891571 111.90193176 2.82322693 C116.70060006 2.87115432 121.26662328 3.19972208 126 4 C126 4.33 126 4.66 126 5 C112.60333621 5.06984936 99.20671653 5.12298747 85.80990696 5.15543652 C79.5876422 5.17101904 73.36550305 5.19212033 67.14331055 5.22631836 C61.12620262 5.25917811 55.10921466 5.27690859 49.09202385 5.28463173 C46.80899101 5.29012784 44.52596391 5.30085872 42.24298286 5.31719017 C11.06229741 5.5311487 11.06229741 5.5311487 0 0 Z " fill="#2F9558" transform="translate(153,356)"/>
<path d="M0 0 C0.66 0.33 1.32 0.66 2 1 C2.02469575 5.09341499 2.04285793 9.18680121 2.05493164 13.28027344 C2.0599643 14.67318477 2.06679098 16.0660908 2.07543945 17.45898438 C2.08755152 19.45961246 2.09270412 21.46027888 2.09765625 23.4609375 C2.10289307 24.66540527 2.10812988 25.86987305 2.11352539 27.11083984 C2 30 2 30 1 32 C6.28421425 31.95568793 11.56725167 31.885689 16.85083008 31.79248047 C18.64598189 31.76435799 20.44125552 31.74310025 22.23657227 31.72900391 C24.826314 31.70745266 27.41460457 31.66074277 30.00390625 31.609375 C30.79898087 31.60814636 31.59405548 31.60691772 32.41322327 31.60565186 C38.04073583 31.45969278 41.35246518 30.20924819 46 27 C48.3909907 24.41139607 48.3909907 24.41139607 50 22 C49.37240135 24.92879371 48.41377341 27.36095629 47 30 C46.01 30 45.02 30 44 30 C43.835 30.639375 43.67 31.27875 43.5 31.9375 C42 34 42 34 38.3996582 34.62548828 C34.3009119 35.03885445 30.2223415 35.12430952 26.10546875 35.0546875 C25.03441643 35.03705856 25.03441643 35.03705856 23.94172668 35.01907349 C22.44846434 34.99059223 20.95526705 34.95848275 19.4621582 34.92285156 C17.93695829 34.89076621 16.41148854 34.86973165 14.88598633 34.859375 C12.66633864 34.84418006 10.44945166 34.79691652 8.23046875 34.7421875 C6.91457764 34.7201123 5.59868652 34.69803711 4.24291992 34.67529297 C1 34 1 34 -0.94018555 31.62939453 C-2.05668077 28.85937529 -2.25335602 26.95582029 -2 24 C-1.34 24 -0.68 24 0 24 C0 16.08 0 8.16 0 0 Z " fill="#269057" transform="translate(278,211)"/>
<path d="M0 0 C1.39073638 2.78147277 0.67606211 4.41781196 0.0625 7.4375 C-0.53351127 10.40176799 -1 12.97102783 -1 16 C-1.99 16 -2.98 16 -4 16 C-3.91864935 19.54257346 -3.80584824 23.0834847 -3.6875 26.625 C-3.66494141 27.62402344 -3.64238281 28.62304688 -3.61914062 29.65234375 C-3.41616647 35.22490691 -2.9126015 39.10435067 0 44 C0.1875 46.875 0.1875 46.875 0 49 C0.66 49 1.32 49 2 49 C2 50.32 2 51.64 2 53 C2.639375 53.2475 3.27875 53.495 3.9375 53.75 C6 55 6 55 6.5 56.875 C6.665 57.57625 6.83 58.2775 7 59 C8.97901574 61.22977996 8.97901574 61.22977996 11 63 C10.67 63.66 10.34 64.32 10 65 C-1.16942074 53.7751479 -6.19363798 40.33107435 -6.4375 24.5625 C-6.40934096 15.88174846 -4.88567692 7.32851538 0 0 Z " fill="#2B9355" transform="translate(117,277)"/>
<path d="M0 0 C0.33 0 0.66 0 1 0 C1 24.75 1 49.5 1 75 C-4.35534415 77.14213766 -4.35534415 77.14213766 -8 76 C-9.43856072 76.02924985 -10.87673916 76.09314272 -12.3125 76.1875 C-17.27286716 76.27783781 -19.94577681 74.76032217 -24 72 C-24 71.34 -24 70.68 -24 70 C-25.32 69.67 -26.64 69.34 -28 69 C-27.67 68.01 -27.34 67.02 -27 66 C-26.38511719 66.42152344 -25.77023438 66.84304687 -25.13671875 67.27734375 C-23.92435547 68.09912109 -23.92435547 68.09912109 -22.6875 68.9375 C-21.48673828 69.75541016 -21.48673828 69.75541016 -20.26171875 70.58984375 C-13.68333658 74.69139118 -8.90089027 73.40660732 0 74 C0 49.58 0 25.16 0 0 Z " fill="#439765" transform="translate(215,168)"/>
<path d="M0 0 C0.66 0 1.32 0 2 0 C2 1.65 2 3.3 2 5 C2.66 5 3.32 5 4 5 C4.33 5.99 4.66 6.98 5 8 C25.46 8 45.92 8 67 8 C66.01 6.02 66.01 6.02 65 4 C65.375 1.75 65.375 1.75 66 0 C66.67154933 1.28913487 67.33708859 2.58140204 68 3.875 C68.37125 4.59429687 68.7425 5.31359375 69.125 6.0546875 C70 8 70 8 70 10 C47.89 10 25.78 10 3 10 C1.68 7.03 0.36 4.06 -1 1 C-0.67 0.67 -0.34 0.34 0 0 Z " fill="#27864E" transform="translate(325,342)"/>
<path d="M0 0 C0.99 0 1.98 0 3 0 C3.33 2.31 3.66 4.62 4 7 C5.32 7.33 6.64 7.66 8 8 C8.33 7.34 8.66 6.68 9 6 C9.99 6.99 10.98 7.98 12 9 C11 12 11 12 9 13 C9.45082469 14.46067199 9.91093537 15.91848032 10.375 17.375 C10.63023437 18.18710937 10.88546875 18.99921875 11.1484375 19.8359375 C11.89854283 22.16459185 11.89854283 22.16459185 14 24 C14.125 26.625 14.125 26.625 14 29 C11.63418589 26.04023769 9.93528876 23.06300504 8.30078125 19.6484375 C7.81416016 18.63265625 7.32753906 17.616875 6.82617188 16.5703125 C6.0769043 14.98863281 6.0769043 14.98863281 5.3125 13.375 C4.54583008 11.78171875 4.54583008 11.78171875 3.76367188 10.15625 C0 2.2570615 0 2.2570615 0 0 Z " fill="#1DA24D" transform="translate(299,291)"/>
<path d="M0 0 C-1.58093054 1.12837409 -3.16484716 2.25256518 -4.75 3.375 C-5.63171875 4.00148438 -6.5134375 4.62796875 -7.421875 5.2734375 C-12.98642534 9 -12.98642534 9 -17 9 C-16.566875 9.84304688 -16.13375 10.68609375 -15.6875 11.5546875 C-15.130625 12.65039062 -14.57375 13.74609375 -14 14.875 C-13.443125 15.96554687 -12.88625 17.05609375 -12.3125 18.1796875 C-11 21 -11 21 -11 23 C-14 22 -14 22 -15.421875 19.63671875 C-15.86015625 18.66347656 -16.2984375 17.69023437 -16.75 16.6875 C-17.19859375 15.72199219 -17.6471875 14.75648438 -18.109375 13.76171875 C-19.02884475 10.91055596 -19.06798426 9.74159373 -18 7 C-16.948125 6.773125 -15.89625 6.54625 -14.8125 6.3125 C-10.81244208 5.19958066 -8.84567773 2.99949814 -6 0 C-3.3047908 -1.07808368 -2.60944584 -1.30472292 0 0 Z " fill="#2A9053" transform="translate(372,265)"/>
<path d="M0 0 C2.33232235 2.94609138 4.12279053 5.94578688 5.84765625 9.28125 C6.37037109 10.28800781 6.89308594 11.29476563 7.43164062 12.33203125 C7.96982422 13.37746094 8.50800781 14.42289062 9.0625 15.5 C9.60455078 16.54542969 10.14660156 17.59085937 10.70507812 18.66796875 C12.82789467 22.7666578 14.94490975 26.8668576 17 31 C15.1875 30.875 15.1875 30.875 13 30 C11.375 27.0625 11.375 27.0625 10 24 C9.34 23.34 8.68 22.68 8 22 C8 20.68 8 19.36 8 18 C7.34 18 6.68 18 6 18 C5.62875 16.4840625 5.62875 16.4840625 5.25 14.9375 C4.45963109 12.1082084 3.40412375 9.81766018 1.875 7.3125 C0 4 0 4 0 0 Z " fill="#299456" transform="translate(373,310)"/>
<path d="M0 0 C1.98 0.99 1.98 0.99 4 2 C8.1507429 2.28741142 8.1507429 2.28741142 12 1 C13.80843663 0.85283458 15.62331566 0.7789113 17.4375 0.75 C18.88962891 0.71132812 18.88962891 0.71132812 20.37109375 0.671875 C23 1 23 1 24.84765625 2.515625 C25.22792969 3.00546875 25.60820312 3.4953125 26 4 C25.67 4.99 25.34 5.98 25 7 C24.505 6.34 24.01 5.68 23.5 5 C20.61473341 2.69178673 18.68821254 2.42445441 15.0234375 2.6015625 C11.77684 3.2408539 9.58090155 5.00566698 7 7 C5.02 7.99 5.02 7.99 3 9 C2.01 6.03 1.02 3.06 0 0 Z " fill="#2E9655" transform="translate(104,194)"/>
<path d="M0 0 C0.33 0 0.66 0 1 0 C1.73246601 10.98699014 -1.79649685 20.03938434 -8 29 C-8.33 27.68 -8.66 26.36 -9 25 C-8.34 25 -7.68 25 -7 25 C-7 23.68 -7 22.36 -7 21 C-6.34 21 -5.68 21 -5 21 C-5 19.68 -5 18.36 -5 17 C-4.34 17 -3.68 17 -3 17 C-2.86722656 16.02417969 -2.73445313 15.04835937 -2.59765625 14.04296875 C-2.42105469 12.77066406 -2.24445313 11.49835938 -2.0625 10.1875 C-1.88847656 8.92292969 -1.71445312 7.65835938 -1.53515625 6.35546875 C-1 3 -1 3 0 0 Z " fill="#2A9455" transform="translate(388,227)"/>
<path d="M0 0 C0.92232422 0.63228516 0.92232422 0.63228516 1.86328125 1.27734375 C3.07564453 2.09912109 3.07564453 2.09912109 4.3125 2.9375 C5.11300781 3.48277344 5.91351563 4.02804688 6.73828125 4.58984375 C11.02822159 7.26457339 15.27923916 7.30101187 20.1875 7.5625 C20.93708984 7.60568359 21.68667969 7.64886719 22.45898438 7.69335938 C24.30578375 7.79922685 26.15286834 7.9000976 28 8 C26.13671875 9.51953125 26.13671875 9.51953125 24 11 C21.8125 10.6875 21.8125 10.6875 19 10 C17.54099018 10.04396263 16.08252252 10.10831372 14.625 10.1875 C9.699086 10.27826223 7.0258985 8.74103728 3 6 C3 5.34 3 4.68 3 4 C1.68 3.67 0.36 3.34 -1 3 C-0.67 2.01 -0.34 1.02 0 0 Z " fill="#2B9557" transform="translate(188,234)"/>
<path d="M0 0 C0.66 0.33 1.32 0.66 2 1 C1.21753906 1.53109375 0.43507813 2.0621875 -0.37109375 2.609375 C-1.88896484 3.66898438 -1.88896484 3.66898438 -3.4375 4.75 C-4.44683594 5.44609375 -5.45617187 6.1421875 -6.49609375 6.859375 C-9.07736904 8.75065671 -9.07736904 8.75065671 -9.9375 11.1484375 C-10.20114943 13.14850645 -10.20114943 13.14850645 -8.5625 14.875 C-6.50331102 17.67549701 -6.7686761 19.60724951 -7 23 C-9.07444392 20.92555608 -10.00647758 19.26091725 -11.25 16.625 C-11.81460938 15.46871094 -11.81460938 15.46871094 -12.390625 14.2890625 C-13 12 -13 12 -12.3203125 9.90625 C-10.92022111 7.88481628 -9.51158571 6.44852782 -7.625 4.875 C-7.03976563 4.37742188 -6.45453125 3.87984375 -5.8515625 3.3671875 C-3.95143888 1.96414264 -2.19508738 0.8762283 0 0 Z " fill="#369157" transform="translate(111,171)"/>
<path d="M0 0 C6.61125694 1.73151968 11.21595265 5.32392897 15 11 C14.67 11.66 14.34 12.32 14 13 C11.4375 13.625 11.4375 13.625 9 14 C9.33 12.35 9.66 10.7 10 9 C9.34 8.67 8.68 8.34 8 8 C8 7.34 8 6.68 8 6 C7.34 6 6.68 6 6 6 C6 5.34 6 4.68 6 4 C5.01 4.33 4.02 4.66 3 5 C2.01 3.35 1.02 1.7 0 0 Z " fill="#289853" transform="translate(153,169)"/>
<path d="M0 0 C2.77141717 -0.08089542 5.54047819 -0.14044062 8.3125 -0.1875 C9.09818359 -0.21263672 9.88386719 -0.23777344 10.69335938 -0.26367188 C11.45068359 -0.27333984 12.20800781 -0.28300781 12.98828125 -0.29296875 C14.03302612 -0.31653442 14.03302612 -0.31653442 15.09887695 -0.34057617 C17.59889677 0.1072892 18.47473958 1.00461091 20 3 C20.1875 5.6875 20.1875 5.6875 20 8 C17 4.25 17 4.25 17 2 C11.72 2 6.44 2 1 2 C0.67 1.34 0.34 0.68 0 0 Z " fill="#2E9556" transform="translate(279,283)"/>
<path d="M0 0 C8.01953645 2.65903501 13.80273446 9.88289756 18 17 C17.67 17.66 17.34 18.32 17 19 C16.34 17.68 15.68 16.36 15 15 C14.34 15 13.68 15 13 15 C11.6559907 13.00715862 10.32458708 11.00580329 9 9 C5.25373539 4.67497064 5.25373539 4.67497064 0 3 C0 2.01 0 1.02 0 0 Z " fill="#329055" transform="translate(365,178)"/>
<path d="M0 0 C2 1 2 1 3.125 3.3125 C4 6 4 6 4 10 C4.99 10.33 5.98 10.66 7 11 C8.74672985 14.4934597 10 17.06845568 10 21 C4.71296339 15.5619052 0 7.75502839 0 0 Z " fill="#2F9455" transform="translate(137,224)"/>
<path d="M0 0 C0.66 0.33 1.32 0.66 2 1 C0.33333333 2.66666667 -1.33333333 4.33333333 -3 6 C-3.825 6.886875 -4.65 7.77375 -5.5 8.6875 C-7.96992246 10.97217828 -9.82133822 12.00099201 -13 13 C-9.75428718 7.2141641 -5.3345127 3.85270362 0 0 Z " fill="#289254" transform="translate(134,259)"/>
<path d="M0 0 C8.79393628 -0.42781312 16.51311539 0.70032804 25 3 C24.01 3.99 23.02 4.98 22 6 C21.34 5.34 20.68 4.68 20 4 C17.87757625 3.44652243 17.87757625 3.44652243 15.4296875 3.1484375 C14.08583984 2.95507812 14.08583984 2.95507812 12.71484375 2.7578125 C11.30912109 2.56832031 11.30912109 2.56832031 9.875 2.375 C8.45767578 2.17390625 8.45767578 2.17390625 7.01171875 1.96875 C4.67542055 1.6383644 2.33830929 1.3157825 0 1 C0 0.67 0 0.34 0 0 Z " fill="#2D9558" transform="translate(328,168)"/>
<path d="M0 0 C4.38379159 3.7820947 5.70973832 9.57733099 6.1875 15.2109375 C6.1875 16.80851469 6.10396895 18.40580951 6 20 C5.01 20 4.02 20 3 20 C3.061875 18.700625 3.12375 17.40125 3.1875 16.0625 C3.20877122 11.5813637 2.24263041 8.01190483 0.65625 3.84765625 C0 2 0 2 0 0 Z " fill="#299454" transform="translate(383,199)"/>
<path d="M0 0 C4.12751449 0.60698743 7.3321148 2.03810791 11 4 C10.67 5.32 10.34 6.64 10 8 C11.65 8.33 13.3 8.66 15 9 C14.67 9.66 14.34 10.32 14 11 C11.11424181 10.60196439 10.17810487 10.20990931 8.25 7.9375 C7.8375 7.298125 7.425 6.65875 7 6 C7.33 5.34 7.66 4.68 8 4 C7.05125 3.71125 6.1025 3.4225 5.125 3.125 C2 2 2 2 0 0 Z " fill="#20964D" transform="translate(355,173)"/>
<path d="M0 0 C0 0.33 0 0.66 0 1 C-0.61746094 1.15855469 -1.23492187 1.31710937 -1.87109375 1.48046875 C-8.14189933 3.20804228 -13.45558674 5.61174745 -19 9 C-19 8.01 -19 7.02 -19 6 C-12.25 2 -12.25 2 -10 2 C-10 1.34 -10 0.68 -10 0 C-6.30581799 -1.231394 -3.7943739 -0.64432764 0 0 Z " fill="#2D9357" transform="translate(183,274)"/>
<path d="M0 0 C3.95431169 4.39367965 6.86631108 9.49527743 9 15 C8.67 15.66 8.34 16.32 8 17 C6.7665065 15.03518625 5.53611257 13.06864582 4.3125 11.09765625 C3.29273822 9.4678584 2.24549875 7.85523948 1.1875 6.25 C0 4 0 4 0 0 Z " fill="#2E8F56" transform="translate(361,288)"/>
<path d="M0 0 C0.66 0 1.32 0 2 0 C2.34933594 0.71027344 2.69867188 1.42054688 3.05859375 2.15234375 C3.51363281 3.07144531 3.96867187 3.99054688 4.4375 4.9375 C4.88996094 5.85402344 5.34242188 6.77054687 5.80859375 7.71484375 C6.80525394 9.90528904 6.80525394 9.90528904 8 11 C8.04063832 12.66617115 8.042721 14.33388095 8 16 C5.35820725 12.80815657 3.85450983 9.58418661 2.3125 5.75 C1.87550781 4.67234375 1.43851562 3.5946875 0.98828125 2.484375 C0.66214844 1.66453125 0.33601563 0.8446875 0 0 Z " fill="#2C9257" transform="translate(305,304)"/>
<path d="M0 0 C0.99 0 1.98 0 3 0 C3.53190541 1.43344 4.05015258 2.87195367 4.5625 4.3125 C4.85253906 5.11300781 5.14257812 5.91351563 5.44140625 6.73828125 C6 9 6 9 5 12 C4.16180842 10.37750059 3.3295884 8.75191503 2.5 7.125 C2.0359375 6.22007812 1.571875 5.31515625 1.09375 4.3828125 C0 2 0 2 0 0 Z " fill="#2C9354" transform="translate(299,291)"/>
<path d="M0 0 C1.79093191 -0.08086147 3.58289628 -0.13912702 5.375 -0.1875 C6.87160156 -0.23970703 6.87160156 -0.23970703 8.3984375 -0.29296875 C9.25695312 -0.19628906 10.11546875 -0.09960938 11 0 C11.66 0.99 12.32 1.98 13 3 C11.58249437 2.88490339 10.16598831 2.75746342 8.75 2.625 C7.96109375 2.55539062 7.1721875 2.48578125 6.359375 2.4140625 C3.914123 1.98492887 2.15163097 1.21399362 0 0 Z " fill="#2F9657" transform="translate(153,356)"/>
<path d="M0 0 C2.64465038 3.1254959 3.84414715 6.08788267 5 10 C2 9 2 9 0.8125 6.6875 C0 4 0 4 0 0 Z " fill="#2D8F56" transform="translate(390,342)"/>
<path d="M0 0 C0.66 0 1.32 0 2 0 C2 1.65 2 3.3 2 5 C2.66 5 3.32 5 4 5 C4.33 6.32 4.66 7.64 5 9 C4.01 9 3.02 9 2 9 C1.01 6.36 0.02 3.72 -1 1 C-0.67 0.67 -0.34 0.34 0 0 Z " fill="#2B9456" transform="translate(325,342)"/>
<path d="M0 0 C2.13586678 3.20380017 2.23132175 4.01939967 2.125 7.6875 C2.10695313 8.49574219 2.08890625 9.30398438 2.0703125 10.13671875 C2.04710937 10.75160156 2.02390625 11.36648438 2 12 C1.34 11.67 0.68 11.34 0 11 C-0.44921875 9.00390625 -0.44921875 9.00390625 -0.6875 6.5625 C-0.77386719 5.75941406 -0.86023438 4.95632813 -0.94921875 4.12890625 C-1 2 -1 2 0 0 Z " fill="#1C8B5A" transform="translate(278,285)"/>
</svg>
